<svg xmlns="http://www.w3.org/2000/svg" width="439" height="497.395" viewBox="0 0 439 497.395">
  <g id="Group_353" data-name="Group 353" transform="translate(-740.148 55.91)">
    <g id="Group_306" data-name="Group 306" transform="translate(782.016 -8.508)">
      <circle id="Ellipse_1" data-name="Ellipse 1" cx="160.916" cy="160.916" r="160.916" fill="#efefef"/>
    </g>
    <g id="Group_352" data-name="Group 352" transform="translate(740.148 -55.91)">
      <g id="Group_323" data-name="Group 323" transform="translate(0 234.333)">
        <g id="Group_307" data-name="Group 307" transform="translate(0 47.485)">
          <path id="Path_201" data-name="Path 201" d="M946.935,169.575v96.593a30.281,30.281,0,0,1-30.281,30.281H770.426a22.511,22.511,0,0,0-22.511,22.511v62.307a3.884,3.884,0,0,1-3.884,3.884h0a3.883,3.883,0,0,1-3.883-3.884V318.96a30.278,30.278,0,0,1,30.278-30.278h146.23a22.509,22.509,0,0,0,22.508-22.509v-96.6Z" transform="translate(-740.148 -169.575)" fill="#0e3863"/>
        </g>
        <g id="Group_322" data-name="Group 322" transform="translate(172.879)">
          <g id="Group_308" data-name="Group 308" transform="translate(17.399 68.334)">
            <path id="Path_202" data-name="Path 202" d="M917.64,186.256v15.48a6.693,6.693,0,0,1-6.693,6.692H899.081a6.673,6.673,0,0,1-5.092-2.351h0a6.662,6.662,0,0,1-1.6-4.339v-15.48Z" transform="translate(-892.391 -186.256)" fill="#0e3863"/>
          </g>
          <g id="Group_314" data-name="Group 314">
            <g id="Group_311" data-name="Group 311" transform="translate(0 25.443)">
              <g id="Group_309" data-name="Group 309" transform="translate(4.21 6.807)">
                <path id="Path_203" data-name="Path 203" d="M933.466,157.385v30.921a8.648,8.648,0,0,1-8.649,8.646H890.484a8.647,8.647,0,0,1-8.646-8.646V157.385Z" transform="translate(-881.838 -157.385)" fill="#0e3863"/>
              </g>
              <g id="Group_310" data-name="Group 310">
                <rect id="Rectangle_124" data-name="Rectangle 124" width="60.046" height="6.808" rx="2.723" transform="translate(60.046 6.808) rotate(-180)" fill="#0e3863"/>
              </g>
            </g>
            <g id="Group_312" data-name="Group 312" transform="translate(13.476 0.001)">
              <path id="Path_204" data-name="Path 204" d="M898.051,157.024h-8.8V135.981a4.4,4.4,0,0,1,4.4-4.4h0a4.4,4.4,0,0,1,4.4,4.4Z" transform="translate(-889.252 -131.582)" fill="#ff7c3b"/>
            </g>
            <g id="Group_313" data-name="Group 313" transform="translate(37.771)">
              <path id="Rectangle_125" data-name="Rectangle 125" d="M3.52,0H5.279A3.52,3.52,0,0,1,8.8,3.52V25.443a0,0,0,0,1,0,0H0a0,0,0,0,1,0,0V3.52A3.52,3.52,0,0,1,3.52,0Z" fill="#ff7c3b"/>
            </g>
          </g>
          <g id="Group_315" data-name="Group 315" transform="translate(4.21 32.25)" opacity="0.05">
            <path id="Path_205" data-name="Path 205" d="M933.466,157.385v30.921a8.648,8.648,0,0,1-8.649,8.646H890.484a8.647,8.647,0,0,1-8.646-8.646c37.073-2.576,40.477-30.921,40.477-30.921Z" transform="translate(-881.838 -157.385)" fill="#f6f5f8"/>
          </g>
          <g id="Group_316" data-name="Group 316" transform="translate(4.21 32.25)">
            <rect id="Rectangle_126" data-name="Rectangle 126" width="51.628" height="2.493" fill="#ff7c3b"/>
          </g>
          <g id="Group_317" data-name="Group 317" transform="translate(23.087 45.319)" opacity="0.03">
            <path id="Path_206" data-name="Path 206" d="M929.693,167.842v17.851a8.648,8.648,0,0,1-8.649,8.646h-24.1C921.281,194.34,929.693,167.842,929.693,167.842Z" transform="translate(-896.942 -167.842)" fill="#f6f5f8"/>
          </g>
          <g id="Group_318" data-name="Group 318" transform="translate(17.399 71.817)">
            <rect id="Rectangle_127" data-name="Rectangle 127" width="25.248" height="1.616" fill="#ff7c3b"/>
          </g>
          <g id="Group_319" data-name="Group 319" transform="translate(13.476 22.362)" opacity="0.5">
            <rect id="Rectangle_128" data-name="Rectangle 128" width="8.799" height="3.08" fill="#f6f5f8"/>
          </g>
          <g id="Group_320" data-name="Group 320" transform="translate(37.771 22.362)" opacity="0.5">
            <rect id="Rectangle_129" data-name="Rectangle 129" width="8.799" height="3.08" fill="#f6f5f8"/>
          </g>
          <g id="Group_321" data-name="Group 321" transform="translate(18.998 71.817)" opacity="0.1">
            <path id="Path_207" data-name="Path 207" d="M917.321,189.043v12a6.693,6.693,0,0,1-6.693,6.692H898.762a6.673,6.673,0,0,1-5.092-2.351h0c18.5,2.268,21.321-16.337,21.321-16.337Z" transform="translate(-893.67 -189.043)" fill="#f6f5f8"/>
          </g>
        </g>
      </g>
      <g id="Group_336" data-name="Group 336" transform="translate(172.879)">
        <g id="Group_324" data-name="Group 324" transform="translate(26.139)">
          <path id="Path_208" data-name="Path 208" d="M1139.366-52.026h0a3.886,3.886,0,0,1-3.886,3.884H929.665a22.512,22.512,0,0,0-22.512,22.512V76.449h-7.769V-25.63a30.279,30.279,0,0,1,30.281-30.28H1135.48A3.885,3.885,0,0,1,1139.366-52.026Z" transform="translate(-899.384 55.91)" fill="#0e3863"/>
        </g>
        <g id="Group_335" data-name="Group 335" transform="translate(0 101.445)">
          <g id="Group_325" data-name="Group 325" transform="translate(17.399 0)">
            <path id="Path_209" data-name="Path 209" d="M917.64,47.429V31.95a6.694,6.694,0,0,0-6.693-6.693H899.081a6.677,6.677,0,0,0-5.092,2.351h0a6.668,6.668,0,0,0-1.6,4.341V47.429Z" transform="translate(-892.391 -25.257)" fill="#0e3863"/>
          </g>
          <g id="Group_329" data-name="Group 329" transform="translate(0 18.689)">
            <g id="Group_328" data-name="Group 328">
              <g id="Group_326" data-name="Group 326" transform="translate(4.21)">
                <path id="Path_210" data-name="Path 210" d="M933.466,79.777V48.856a8.648,8.648,0,0,0-8.649-8.646H890.484a8.647,8.647,0,0,0-8.646,8.646V79.777Z" transform="translate(-881.838 -40.21)" fill="#0e3863"/>
              </g>
              <g id="Group_327" data-name="Group 327" transform="translate(0 39.567)">
                <rect id="Rectangle_130" data-name="Rectangle 130" width="60.046" height="6.808" rx="2.723" transform="translate(60.046 6.808) rotate(-180)" fill="#0e3863"/>
              </g>
            </g>
          </g>
          <g id="Group_330" data-name="Group 330" transform="translate(4.21 18.689)" opacity="0.05">
            <path id="Path_211" data-name="Path 211" d="M933.466,79.777V48.856a8.648,8.648,0,0,0-8.649-8.646H890.484a8.647,8.647,0,0,0-8.646,8.646c37.073,2.576,40.477,30.921,40.477,30.921Z" transform="translate(-881.838 -40.21)" fill="#f6f5f8"/>
          </g>
          <g id="Group_331" data-name="Group 331" transform="translate(4.21 55.763)">
            <rect id="Rectangle_131" data-name="Rectangle 131" width="51.628" height="2.493" fill="#ff7c3b"/>
          </g>
          <g id="Group_332" data-name="Group 332" transform="translate(23.087 18.689)" opacity="0.03">
            <path id="Path_212" data-name="Path 212" d="M929.693,66.708V48.856a8.648,8.648,0,0,0-8.649-8.646h-24.1C921.281,40.21,929.693,66.708,929.693,66.708Z" transform="translate(-896.942 -40.21)" fill="#f6f5f8"/>
          </g>
          <g id="Group_333" data-name="Group 333" transform="translate(17.399 17.073)">
            <rect id="Rectangle_132" data-name="Rectangle 132" width="25.248" height="1.616" fill="#ff7c3b"/>
          </g>
          <g id="Group_334" data-name="Group 334" transform="translate(18.998 0)" opacity="0.1">
            <path id="Path_213" data-name="Path 213" d="M917.321,43.946v-12a6.694,6.694,0,0,0-6.693-6.693H898.762a6.677,6.677,0,0,0-5.092,2.351h0c18.5-2.268,21.321,16.337,21.321,16.337Z" transform="translate(-893.67 -25.257)" fill="#f6f5f8"/>
          </g>
        </g>
      </g>
      <g id="Group_351" data-name="Group 351" transform="translate(116.997 152.831)">
        <g id="Group_343" data-name="Group 343">
          <g id="Group_338" data-name="Group 338" transform="translate(0 36.276)">
            <g id="Group_337" data-name="Group 337">
              <path id="Path_214" data-name="Path 214" d="M851.945,99.8H835.959a2.2,2.2,0,1,1,0-4.4h15.987a2.2,2.2,0,0,1,0,4.4Z" transform="translate(-833.758 -95.396)" fill="#0e3863"/>
            </g>
          </g>
          <g id="Group_340" data-name="Group 340" transform="translate(36.276)">
            <g id="Group_339" data-name="Group 339">
              <path id="Path_215" data-name="Path 215" d="M864.983,86.758a2.2,2.2,0,0,1-2.2-2.2V68.572a2.2,2.2,0,1,1,4.4,0V84.559A2.2,2.2,0,0,1,864.983,86.758Z" transform="translate(-862.783 -66.371)" fill="#0e3863"/>
            </g>
          </g>
          <g id="Group_342" data-name="Group 342" transform="translate(10.626 10.626)">
            <g id="Group_341" data-name="Group 341">
              <path id="Path_216" data-name="Path 216" d="M855.442,90.255a2.194,2.194,0,0,1-1.556-.644L842.9,78.629a2.2,2.2,0,0,1,3.112-3.112L857,86.5a2.2,2.2,0,0,1-1.556,3.756Z" transform="translate(-842.26 -74.873)" fill="#ff7c3b"/>
            </g>
          </g>
        </g>
        <g id="Group_350" data-name="Group 350" transform="translate(131.134 90.187)">
          <g id="Group_345" data-name="Group 345" transform="translate(20.288)">
            <g id="Group_344" data-name="Group 344">
              <path id="Path_217" data-name="Path 217" d="M957.113,138.53H973.1a2.2,2.2,0,0,1,0,4.4H957.113a2.2,2.2,0,1,1,0-4.4Z" transform="translate(-954.912 -138.53)" fill="#ff7c3b"/>
            </g>
          </g>
          <g id="Group_347" data-name="Group 347" transform="translate(0 20.289)">
            <g id="Group_346" data-name="Group 346">
              <path id="Path_218" data-name="Path 218" d="M940.879,154.763a2.2,2.2,0,0,1,2.2,2.2v15.985a2.2,2.2,0,1,1-4.4,0V156.964A2.2,2.2,0,0,1,940.879,154.763Z" transform="translate(-938.679 -154.763)" fill="#ff7c3b"/>
            </g>
          </g>
          <g id="Group_349" data-name="Group 349" transform="translate(14.669 14.668)">
            <g id="Group_348" data-name="Group 348">
              <path id="Path_219" data-name="Path 219" d="M952.616,150.266a2.193,2.193,0,0,1,1.556.645l10.982,10.981A2.2,2.2,0,1,1,962.042,165L951.06,154.023a2.2,2.2,0,0,1,1.556-3.757Z" transform="translate(-950.416 -150.266)" fill="#0e3863"/>
            </g>
          </g>
        </g>
      </g>
    </g>
  </g>
</svg>
