<svg id="Layer_1" data-name="Layer 1" xmlns="http://www.w3.org/2000/svg" viewBox="0 0 350 80"><defs><style>.cls-1{fill:#969;}.cls-2{fill:#fff;}</style></defs><path class="cls-1" d="M136.72,55.48c4.44,1.56,9.08,1.06,13.59.44,9.39-1.32,18.15-5.64,27.86-5a20.6,20.6,0,0,1,13.46,5.51,29.74,29.74,0,0,0-13.46-1.75c-9.27.75-18,5.07-27.61,4.88-4.76-.06-10.27-.69-13.84-4.13Z"/><path class="cls-2" d="M221.27,60.65a8.05,8.05,0,0,1-3.38.61c-3.62,0-6.34-2.28-6.34-6.49a6.38,6.38,0,0,1,6.7-6.74,6.79,6.79,0,0,1,3,.57l-.4,1.35a6.07,6.07,0,0,0-2.59-.53c-3,0-5,1.92-5,5.29,0,3.14,1.81,5.16,4.93,5.16a6.65,6.65,0,0,0,2.7-.53Z"/><path class="cls-2" d="M223.9,51.86l2,5.44c.21.61.44,1.33.59,1.89h0c.17-.56.36-1.26.59-1.93l1.83-5.4h1.77l-2.52,6.56c-1.2,3.16-2,4.78-3.16,5.77A4.52,4.52,0,0,1,223,65.28l-.42-1.41a4.46,4.46,0,0,0,1.46-.82,5,5,0,0,0,1.41-1.87,1.12,1.12,0,0,0,.14-.4,1.41,1.41,0,0,0-.12-.43l-3.41-8.49Z"/><path class="cls-2" d="M238.66,55.49a2.29,2.29,0,0,0-.1-.76A2.41,2.41,0,0,0,236.22,53c-1.6,0-2.74,1.35-2.74,3.48,0,1.81.91,3.32,2.72,3.32A2.44,2.44,0,0,0,238.52,58a2.76,2.76,0,0,0,.14-.89Zm1.73-3.63c0,.66-.08,1.4-.08,2.53v5.35c0,2.11-.42,3.41-1.31,4.2a4.89,4.89,0,0,1-3.35,1.11,6,6,0,0,1-3.07-.76L233,63a5.21,5.21,0,0,0,2.71.72c1.71,0,3-.89,3-3.21v-1h0A3.29,3.29,0,0,1,235.71,61c-2.29,0-3.93-1.94-3.93-4.49,0-3.12,2-4.89,4.15-4.89a3.06,3.06,0,0,1,2.88,1.6h0l.07-1.39Z"/><path class="cls-2" d="M243.36,54.35c0-1,0-1.73-.08-2.49h1.49l.09,1.52h0a3.38,3.38,0,0,1,3-1.73c1.27,0,3.25.76,3.25,3.92v5.5h-1.67V55.76c0-1.49-.55-2.72-2.14-2.72a2.37,2.37,0,0,0-2.24,1.71,2.28,2.28,0,0,0-.12.78v5.54h-1.67Z"/><path class="cls-2" d="M260.13,55.57c0-1.07-.44-2.72-2.32-2.72a2.77,2.77,0,0,0-2.57,2.72Zm-4.91,1.2a3,3,0,0,0,3.16,3.2,6,6,0,0,0,2.55-.48l.29,1.2a7.42,7.42,0,0,1-3.07.57,4.28,4.28,0,0,1-4.53-4.65c0-2.77,1.64-5,4.32-5,3,0,3.81,2.64,3.81,4.34a6,6,0,0,1-.06.78Z"/><path class="cls-2" d="M266.22,49.21v2.65h2.4v1.27h-2.4v5c0,1.14.33,1.79,1.26,1.79a3.54,3.54,0,0,0,1-.12l.08,1.26a4.22,4.22,0,0,1-1.49.23,2.35,2.35,0,0,1-1.81-.7,3.46,3.46,0,0,1-.64-2.4v-5h-1.43V51.86h1.43V49.65Z"/><rect class="cls-2" x="275.5" y="48.24" width="0.89" height="12.83"/><path class="cls-2" d="M280.14,54.12c0-.84,0-1.46-.07-2.19h.83l.08,1.66h0a3.43,3.43,0,0,1,3.14-1.87c.88,0,3.18.44,3.18,3.87v5.48h-.9V55.66c0-1.65-.64-3.16-2.53-3.16a2.93,2.93,0,0,0-2.74,2.1,2.61,2.61,0,0,0-.13.82v5.65h-.9Z"/><path class="cls-2" d="M290.77,61.07V52.66h-1.32v-.73h1.32v-.49a4.5,4.5,0,0,1,1-3.3,2.86,2.86,0,0,1,2-.8,3,3,0,0,1,1.37.31l-.28.72a2.4,2.4,0,0,0-1.16-.27c-1.7,0-2.06,1.57-2.06,3.32v.51h2.46v.73h-2.46v8.41Z"/><path class="cls-2" d="M295.94,56.52c0,2.28,1.47,4,3.34,4s3.4-1.72,3.4-4.06c0-1.67-.95-4-3.35-4s-3.39,2.1-3.39,4.06m7.66-.11c0,3.42-2.34,4.87-4.38,4.87-2.36,0-4.19-1.85-4.19-4.7,0-3.14,2.06-4.86,4.32-4.86,2.53,0,4.25,1.89,4.25,4.69"/><path class="cls-2" d="M307.56,49.29v2.64h2.61v.73h-2.61v5.93c0,1.17.36,1.91,1.33,1.91a3.5,3.5,0,0,0,1.05-.15l.11.7a3.66,3.66,0,0,1-1.27.21,1.88,1.88,0,0,1-1.56-.65,3.25,3.25,0,0,1-.58-2.17V52.66H305.1v-.73h1.54V49.57Z"/><path class="cls-2" d="M318.41,55.68c0-1.27-.51-3.22-2.72-3.22-2,0-2.9,1.81-3.05,3.22Zm-5.83.73c0,2.93,1.6,4.07,3.49,4.07A5.4,5.4,0,0,0,318.6,60l.23.72a6.14,6.14,0,0,1-2.88.57c-2.62,0-4.26-1.9-4.26-4.59,0-3,1.75-5,4.11-5,3,0,3.56,2.82,3.56,4.13a2.25,2.25,0,0,1,0,.56Z"/><path class="cls-2" d="M328.37,60.67a5.92,5.92,0,0,1-2.67.59c-2.64,0-4.4-1.9-4.4-4.66A4.6,4.6,0,0,1,326,51.72a4.78,4.78,0,0,1,2.39.57l-.32.75a4.4,4.4,0,0,0-2.17-.54c-2.46,0-3.71,1.89-3.71,4,0,2.38,1.5,3.94,3.62,3.94a5.4,5.4,0,0,0,2.28-.51Z"/><path class="cls-2" d="M330.92,47.55h.89v6h0a3.41,3.41,0,0,1,1.26-1.33,3.37,3.37,0,0,1,1.84-.52c.86,0,3.16.44,3.16,3.83v5.52h-.89V55.66c0-1.65-.65-3.16-2.51-3.16A3,3,0,0,0,332,54.58a2.38,2.38,0,0,0-.14.89v5.6h-.89Z"/><path class="cls-2" d="M201.45,55.26l1.73,4.31a.81.81,0,0,1,.06.22.63.63,0,0,1-.07.21,2.8,2.8,0,0,1-.72,1,2.31,2.31,0,0,1-.74.41l.21.72a2.37,2.37,0,0,0,1-.55,7.09,7.09,0,0,0,1.61-2.94l1.28-3.33H205L204,58c-.12.34-.21.7-.3,1h0c-.08-.28-.19-.65-.3-1l-1-2.76Zm-4,2a1.63,1.63,0,0,1,.05-.35,1.34,1.34,0,0,1,1.29-1c.91,0,1.4.8,1.4,1.74s-.54,1.8-1.43,1.8a1.31,1.31,0,0,1-1.27-1,1.55,1.55,0,0,1,0-.31Zm-.15,2.72,0-.78h0a1.68,1.68,0,0,0,1.57.89,2.23,2.23,0,0,0,2.1-2.51,2.1,2.1,0,0,0-2-2.39,1.74,1.74,0,0,0-1.59.86h0V53.07h-.84v5.66c0,.42,0,.89,0,1.21Z"/><path class="cls-2" d="M28.29,35.14H19.16l-1.74,5.2H11.89l9.4-25.27h4.83l9.46,25.27H30Zm-7.73-4.22h6.32l-3.17-9.46Z"/><path class="cls-2" d="M57.84,15.07V31.72a8.53,8.53,0,0,1-2.6,6.56,10,10,0,0,1-7.09,2.41,10.13,10.13,0,0,1-7-2.34,8.38,8.38,0,0,1-2.65-6.44V15.07h5.21V31.75a4.82,4.82,0,0,0,1.18,3.62,4.57,4.57,0,0,0,3.29,1.14q4.4,0,4.47-4.62V15.07Z"/><path class="cls-2" d="M82.2,19.29H74.46V40.34H69.25V19.29H61.61V15.07H82.2Z"/><path class="cls-2" d="M105.6,28.28a15.21,15.21,0,0,1-1.32,6.54,9.89,9.89,0,0,1-3.77,4.34,11.15,11.15,0,0,1-11.24,0,10,10,0,0,1-3.82-4.31,14.85,14.85,0,0,1-1.37-6.45V27.17a15.26,15.26,0,0,1,1.34-6.57,10.09,10.09,0,0,1,3.8-4.36,11.15,11.15,0,0,1,11.24,0,10.09,10.09,0,0,1,3.8,4.36,15.2,15.2,0,0,1,1.34,6.55Zm-5.27-1.15a10.63,10.63,0,0,0-1.43-6,5,5,0,0,0-8.1,0,10.56,10.56,0,0,0-1.45,6v1.23a10.79,10.79,0,0,0,1.43,6,4.62,4.62,0,0,0,4.09,2.13,4.57,4.57,0,0,0,4-2.06,10.74,10.74,0,0,0,1.43-6Z"/><path class="cls-2" d="M117.26,15.07l6.49,18.33,6.46-18.33h6.84V40.34h-5.23v-6.9l.52-11.93-6.82,18.83h-3.58l-6.8-18.81.52,11.91v6.9h-5.21V15.07Z"/><path class="cls-2" d="M157.23,35.14H148.1l-1.74,5.2h-5.53l9.4-25.27h4.83l9.46,25.27H159Zm-7.72-4.22h6.31l-3.17-9.46Z"/><path class="cls-2" d="M183.49,19.29h-7.74V40.34h-5.21V19.29H162.9l-1.5-4.22h22.09Z"/><path class="cls-2" d="M193.06,40.34h-5.21V15.07h5.21Z"/><path class="cls-2" d="M219.71,28.28a15.21,15.21,0,0,1-1.32,6.54,10,10,0,0,1-3.77,4.34,11.15,11.15,0,0,1-11.24,0,10,10,0,0,1-3.82-4.31,14.85,14.85,0,0,1-1.37-6.45V27.17a15.26,15.26,0,0,1,1.34-6.57,10.09,10.09,0,0,1,3.8-4.36,11.13,11.13,0,0,1,11.23,0,10,10,0,0,1,3.81,4.36,15.2,15.2,0,0,1,1.34,6.55Zm-5.28-1.15a10.63,10.63,0,0,0-1.42-6,5,5,0,0,0-8.1,0,10.56,10.56,0,0,0-1.45,6v1.23a10.79,10.79,0,0,0,1.43,6A4.62,4.62,0,0,0,209,36.42a4.57,4.57,0,0,0,4-2.06,10.66,10.66,0,0,0,1.42-6Z"/><path class="cls-2" d="M245.11,40.34h-5.2L229.77,23.71V40.34h-5.21V15.07h5.21l10.15,16.66V18.07a3,3,0,0,1,3-3h2.19Z"/><path class="cls-2" d="M256.85,32.38l.49,3.33.71-3,5-17.64h2.81l4.88,17.64.7,3,.53-3.4,3.93-17.29h3.35l-6.13,25.27h-3l-5.21-18.41-.4-1.93-.39,1.93-5.4,18.41h-3l-6.11-25.27h3.33Z"/><path class="cls-2" d="M303.44,40.34h-3.36V28.66H287.34V40.34H284V15.07h3.33V25.94h12.74V15.07h3.36Z"/><path class="cls-2" d="M314,40.34h-3.34V15.07H314Z"/><path class="cls-2" d="M323.66,37.62h14.45l-1.6,2.72H319.72v-2.5l13.85-20H319.94V15.07h17.62V17.5Z"/></svg>