<svg xmlns="http://www.w3.org/2000/svg" width="94.095" height="94.095" viewBox="0 0 94.095 94.095">
  <path id="call" d="M47.047,0A47.047,47.047,0,1,0,94.095,47.047,47.1,47.1,0,0,0,47.047,0Zm0,89.684A42.637,42.637,0,1,1,89.684,47.047,42.685,42.685,0,0,1,47.047,89.684ZM71.653,55.6h0l-8.643-4.99a5.738,5.738,0,0,0-7.829,2.1,3.834,3.834,0,0,1-2.4,1.976,3.45,3.45,0,0,1-2.908-.653,56.225,56.225,0,0,1-9.813-9.813,3.45,3.45,0,0,1-.653-2.907,3.834,3.834,0,0,1,1.976-2.4,5.738,5.738,0,0,0,2.1-7.829l-4.99-8.643a5.7,5.7,0,0,0-7.057-2.469l-.1.041c-4.13,1.621-7.15,2.866-8.4,4.115C20.661,26.4,18.363,30.619,20.3,37.849c3.762,14.042,21.9,32.183,35.946,35.946a19.759,19.759,0,0,0,5.112.727,11.732,11.732,0,0,0,8.609-3.357c1.249-1.249,2.493-4.268,4.114-8.4l.041-.105A5.7,5.7,0,0,0,71.653,55.6ZM70.016,61.05l-.041.105c-.782,1.992-2.41,6.137-3.127,6.891-2.105,2.105-5.288,2.606-9.46,1.488C44.8,66.163,27.931,49.289,24.56,36.707c-1.118-4.172-.617-7.355,1.486-9.458.756-.72,4.9-2.348,6.894-3.13l.1-.041a1.357,1.357,0,0,1,.5-.1,1.3,1.3,0,0,1,1.127.665l4.99,8.643a1.322,1.322,0,0,1-.483,1.8,8.121,8.121,0,0,0-4.091,5.337,7.839,7.839,0,0,0,1.447,6.438A60.288,60.288,0,0,0,47.225,57.563a7.838,7.838,0,0,0,6.438,1.447A8.122,8.122,0,0,0,59,54.918a1.327,1.327,0,0,1,1.8-.483l8.643,4.99a1.3,1.3,0,0,1,.569,1.626Z" transform="translate(0 0)" fill="#fff"/>
</svg>
