<svg xmlns="http://www.w3.org/2000/svg" width="94.095" height="94.095" viewBox="0 0 94.095 94.095">
  <path id="email" d="M47.047,0A47.047,47.047,0,1,0,94.095,47.047,47.1,47.1,0,0,0,47.047,0Zm0,89.684A42.637,42.637,0,1,1,89.684,47.047,42.685,42.685,0,0,1,47.047,89.684ZM69.158,27.659H24.936a5.37,5.37,0,0,0-5.364,5.364V61.072a5.37,5.37,0,0,0,5.364,5.364H69.158a5.37,5.37,0,0,0,5.364-5.364V33.023a5.37,5.37,0,0,0-5.364-5.364Zm-3.324,4.411L47.047,46.988,28.261,32.069Zm3.324,29.956H24.936a.955.955,0,0,1-.953-.953V34.3L45.676,51.531a2.2,2.2,0,0,0,2.743,0L70.111,34.3V61.072a.955.955,0,0,1-.953.953Z" transform="translate(0 0)" fill="#fff"/>
</svg>
