<svg xmlns="http://www.w3.org/2000/svg" width="295.551" height="39.999" viewBox="0 0 295.551 39.999">
    <g>
        <path d="M67.793 30.981a16.025 16.025 0 0 1-6.606 1.188c-7.051 0-12.358-4.453-12.358-12.655 0-7.83 5.307-13.137 13.063-13.137a13.4 13.4 0 0 1 5.938 1.114l-.78 2.635a11.734 11.734 0 0 0-5.046-1.04c-5.864 0-9.761 3.749-9.761 10.317 0 6.124 3.526 10.057 9.612 10.057a12.923 12.923 0 0 0 5.27-1.039z" fill="#fff" />
        <path d="M72.914 13.836l3.934 10.614c.408 1.188.853 2.6 1.151 3.674h.074c.334-1.076.705-2.45 1.15-3.748l3.563-10.54h3.451l-4.9 12.8c-2.338 6.16-3.934 9.314-6.161 11.244a8.844 8.844 0 0 1-4.008 2.115l-.816-2.746a8.64 8.64 0 0 0 2.858-1.6 9.891 9.891 0 0 0 2.745-3.636 2.332 2.332 0 0 0 .26-.78 2.847 2.847 0 0 0-.222-.853L69.35 13.828z" fill="#fff" />
        <path d="M101.676 20.925a4.636 4.636 0 0 0-.186-1.485 4.7 4.7 0 0 0-4.564-3.451c-3.118 0-5.344 2.635-5.344 6.791 0 3.526 1.781 6.457 5.306 6.457a4.773 4.773 0 0 0 4.528-3.339 5.7 5.7 0 0 0 .26-1.745zm3.377-7.089a79.349 79.349 0 0 0-.148 4.936V29.2c0 4.119-.817 6.643-2.561 8.2a9.521 9.521 0 0 1-6.532 2.152 11.579 11.579 0 0 1-5.974-1.485l.816-2.486a10.132 10.132 0 0 0 5.27 1.41c3.34 0 5.789-1.744 5.789-6.271v-2h-.074a6.412 6.412 0 0 1-5.715 3.006c-4.453 0-7.645-3.785-7.645-8.758 0-6.087 3.971-9.538 8.09-9.538a5.974 5.974 0 0 1 5.6 3.118h.074l.148-2.71z" fill="#fff" />
        <path d="M110.843 18.698c0-1.856-.037-3.377-.148-4.861h2.894l.186 2.968h.074a6.605 6.605 0 0 1 5.937-3.377c2.487 0 6.347 1.485 6.347 7.645v10.725h-3.266V21.444c0-2.895-1.077-5.307-4.157-5.307a4.638 4.638 0 0 0-4.378 3.341 4.675 4.675 0 0 0-.223 1.521v10.8h-3.266z" fill="#fff" />
        <path d="M143.538 21.073c.037-2.078-.853-5.307-4.527-5.307-3.3 0-4.75 3.043-5.01 5.307zm-9.575 2.338c.075 4.416 2.895 6.235 6.161 6.235a11.82 11.82 0 0 0 4.973-.928l.556 2.338a14.554 14.554 0 0 1-5.974 1.113c-5.53 0-8.832-3.637-8.832-9.055s3.191-9.686 8.423-9.686c5.864 0 7.423 5.159 7.423 8.462a12.3 12.3 0 0 1-.112 1.521z" fill="#fff" />
        <path d="M155.414 8.678v5.158h4.676v2.487h-4.676v9.686c0 2.226.631 3.488 2.45 3.488a7.229 7.229 0 0 0 1.892-.223l.148 2.45a7.982 7.982 0 0 1-2.894.445 4.526 4.526 0 0 1-3.526-1.373c-.927-.965-1.262-2.561-1.262-4.676v-9.8h-2.783v-2.487h2.783v-4.3z" fill="#fff" />
        <path fill="#fff" d="M173.49 6.785h1.744v25.013h-1.744z" />
        <path d="M182.546 18.253c0-1.633-.075-2.858-.149-4.268h1.633l.148 3.229h.075a6.684 6.684 0 0 1 6.123-3.637c1.707 0 6.2.853 6.2 7.533v10.688h-1.744V21.26c0-3.229-1.262-6.161-4.935-6.161a5.69 5.69 0 0 0-5.344 4.082 5.309 5.309 0 0 0-.26 1.6v11.021h-1.744z" fill="#fff" />
        <path d="M203.254 31.798v-16.4h-2.561v-1.41h2.561v-.965c0-2.746.52-4.973 1.967-6.42a5.585 5.585 0 0 1 3.934-1.559 5.817 5.817 0 0 1 2.672.594l-.557 1.41a4.605 4.605 0 0 0-2.264-.519c-3.3 0-4.008 3.043-4.008 6.457v1h4.787v1.41h-4.787v16.4z" fill="#fff" />
        <path d="M213.348 22.928c0 4.454 2.858 7.794 6.495 7.794 3.711 0 6.642-3.34 6.642-7.9 0-3.265-1.855-7.793-6.531-7.793-4.527 0-6.606 4.082-6.606 7.9m14.919-.222c0 6.68-4.565 9.5-8.535 9.5-4.6 0-8.165-3.6-8.165-9.166 0-6.123 4.008-9.463 8.424-9.463 4.936 0 8.276 3.674 8.276 9.129" fill="#fff" />
        <path d="M235.987 8.827v5.158h5.084v1.41h-5.084v11.579c0 2.263.705 3.711 2.6 3.711a6.394 6.394 0 0 0 2.042-.3l.222 1.374a7.029 7.029 0 0 1-2.486.408 3.693 3.693 0 0 1-3.043-1.262 6.39 6.39 0 0 1-1.113-4.23v-11.28h-3.006v-1.41h3.006v-4.6z" fill="#fff" />
        <path d="M257.14 21.296c.037-2.487-1-6.272-5.307-6.272-3.933 0-5.64 3.525-5.937 6.272zm-11.355 1.41c0 5.715 3.117 7.941 6.791 7.941a10.362 10.362 0 0 0 4.936-1l.445 1.409a11.9 11.9 0 0 1-5.6 1.114c-5.121 0-8.313-3.711-8.313-8.944 0-5.938 3.415-9.648 8.016-9.648 5.826 0 6.94 5.492 6.94 8.053a4.428 4.428 0 0 1-.074 1.076z" fill="#fff" />
        <path d="M276.549 31.019a11.555 11.555 0 0 1-5.195 1.15c-5.158 0-8.573-3.711-8.573-9.092 0-5.641 3.86-9.5 9.2-9.5a9.238 9.238 0 0 1 4.676 1.113l-.631 1.447a8.649 8.649 0 0 0-4.231-1.039c-4.787 0-7.237 3.674-7.237 7.868 0 4.638 2.932 7.681 7.052 7.681a10.5 10.5 0 0 0 4.453-1z" fill="#fff" />
        <path d="M281.523 5.449h1.744v11.728h.074a6.557 6.557 0 0 1 2.45-2.6 6.7 6.7 0 0 1 3.6-1c1.67 0 6.161.853 6.161 7.459v10.762h-1.745V21.26c0-3.229-1.261-6.161-4.9-6.161a5.834 5.834 0 0 0-5.381 4.045 4.929 4.929 0 0 0-.26 1.744v10.911h-1.744z" fill="#fff" />
        <path d="M21.135 39.778l-.429-.924a35.921 35.921 0 0 1 7.311-2.31 25.1 25.1 0 0 1 8.149-.506l.223.032a33.514 33.514 0 0 1 3.458.589v1.057c-1.106-.277-2.56-.491-3.6-.637l-.224-.032a24.11 24.11 0 0 0-7.805.495 35.64 35.64 0 0 0-7.084 2.236" fill="#fff" />
        <path d="M39.852 7.214v3.8a23.663 23.663 0 0 0-3.554-.268A23.428 23.428 0 0 0 12.871 34.17a16.48 16.48 0 0 0 .339 3.985 19.65 19.65 0 0 1-1.125-6.991A24.216 24.216 0 0 1 36.298 6.95a23.665 23.665 0 0 1 3.554.264" fill="#fff" />
        <path d="M39.852 7.214v3.8a23.435 23.435 0 0 0-22.519 5.108l.264-.335a16.556 16.556 0 0 1 2.945-3l.4-.339a24.138 24.138 0 0 1 15.355-5.489 23.665 23.665 0 0 1 3.554.264" fill="#33b3e1" />
        <path d="M19.225 6.041c-.144 5.263-4.492 6.925-6.446 11.977a22.049 22.049 0 0 0 .431 20.137c-5.489-6.656-6.437-16.161-1.815-23.143 2.062-3.56 5-6.365 5.183-9.41h.005c.424-4.223-5.715-5.183-7.007-1.534-.417 2.959 1.845 6.217-1.969 7.788a3.974 3.974 0 0 1-2.4.218c3.172-1.64.431-5.151 1.513-7.713C8.599-2.331 19.167-.956 19.229 6.046" fill="#fff" />
        <path d="M39.848 34.748c-11.1-2.315-21.456 4.431-32.393 5.019-12.79.374-7.05-8.5 1.752-5.064-10.46-.636-7.111 6.164 2.028 3.907 9.509-1.954 18.663-7.488 28.613-4.8z" fill="#fff" />
    </g>
</svg>