<svg xmlns="http://www.w3.org/2000/svg" xmlns:xlink="http://www.w3.org/1999/xlink" width="1366" height="129" viewBox="0 0 1366 129">
  <defs>
    <clipPath id="clip-path">
      <rect id="Rectangle_4163" data-name="Rectangle 4163" width="1366" height="129" transform="translate(0 4044)" fill="#fff"/>
    </clipPath>
    <filter id="Subtraction_11" x="-744.5" y="-1158.75" width="2855.001" height="1288.5" filterUnits="userSpaceOnUse">
      <feOffset dy="3" input="SourceAlpha"/>
      <feGaussianBlur stdDeviation="2.5" result="blur"/>
      <feFlood flood-color="#92e5ff"/>
      <feComposite operator="in" in2="blur"/>
      <feComposite in="SourceGraphic"/>
    </filter>
  </defs>
  <g id="Mask_Group_17" data-name="Mask Group 17" transform="translate(0 -4044)" clip-path="url(#clip-path)">
    <g transform="matrix(1, 0, 0, 1, 0, 4044)" filter="url(#Subtraction_11)">
      <path id="Subtraction_11-2" data-name="Subtraction 11" d="M10314-6068c-24.312,0-48.9-.432-73.073-1.283-24.018-.846-48.28-2.127-72.113-3.808-23.662-1.668-47.572-3.777-71.065-6.27-23.337-2.476-46.863-5.394-69.928-8.671-22.933-3.259-46.047-6.963-68.7-11.01-22.52-4.023-45.191-8.493-67.385-13.287-22.077-4.768-44.276-9.983-65.979-15.5-21.6-5.491-43.292-11.43-64.484-17.654-21.11-6.2-42.273-12.844-62.9-19.746-20.552-6.875-41.151-14.2-61.228-21.774-20-7.542-40-15.531-59.467-23.742-19.395-8.183-38.778-16.812-57.612-25.646-18.779-8.809-37.511-18.058-55.674-27.491-18.126-9.412-36.175-19.26-53.643-29.271-17.446-10-34.781-20.422-51.524-30.99s-33.325-21.545-49.317-32.648-31.808-22.623-47.018-34.243-30.233-23.662-44.631-35.776c-14.421-12.134-28.6-24.666-42.156-37.249-13.571-12.6-26.892-25.607-39.59-38.657-12.722-13.077-25.148-26.536-36.936-40.005-11.829-13.519-23.332-27.411-34.191-41.292-10.9-13.93-21.45-28.234-31.359-42.514-9.94-14.325-19.508-29.02-28.437-43.676-8.964-14.715-17.518-29.78-25.426-44.776-7.953-15.084-15.465-30.5-22.324-45.813-6.9-15.4-13.338-31.145-19.136-46.79-5.831-15.738-11.166-31.789-15.855-47.7-4.721-16.019-8.923-32.355-12.488-48.555-3.589-16.315-6.628-32.917-9.03-49.346-2.422-16.557-4.267-33.4-5.483-50.073-1.226-16.786-1.848-33.857-1.848-50.739a699.173,699.173,0,0,1,3.974-74.322,703.468,703.468,0,0,1,11.731-72.822,722.964,722.964,0,0,1,19.207-71.124c7.548-23.19,16.43-46.483,26.4-69.231a805.541,805.541,0,0,0,37.43,74.474c13.75,24.178,29.083,48.275,45.573,71.622,16.39,23.2,34.332,46.251,53.33,68.5,18.9,22.139,39.322,44.045,60.7,65.112,21.295,20.99,44.063,41.666,67.675,61.454,23.569,19.752,48.556,39.105,74.267,57.523s52.786,36.36,80.468,53.325c27.721,16.988,56.75,33.426,86.283,48.856,29.612,15.472,60.468,30.316,91.707,44.118,31.384,13.866,63.934,27.024,96.746,39.111,33.014,12.161,67.128,23.544,101.395,33.833,34.526,10.367,70.074,19.883,105.656,28.287C10003.448-6660.591,10157.361-6643,10314-6643s310.552-17.591,457.464-52.284c35.582-8.4,71.13-17.92,105.656-28.287,34.268-10.289,68.381-21.672,101.395-33.833,32.809-12.085,65.358-25.244,96.745-39.111,31.236-13.8,62.092-28.644,91.709-44.118,29.527-15.428,58.558-31.866,86.282-48.856,27.688-16.969,54.762-34.91,80.467-53.325s50.7-37.77,74.267-57.523c23.611-19.788,46.38-40.464,67.675-61.454,21.374-21.066,41.8-42.973,60.7-65.112,19-22.258,36.946-45.305,53.329-68.5,16.494-23.352,31.827-47.45,45.573-71.622a805.41,805.41,0,0,0,37.43-74.474c9.97,22.745,18.852,46.038,26.4,69.231a722.831,722.831,0,0,1,19.207,71.124,703.468,703.468,0,0,1,11.731,72.822A699.173,699.173,0,0,1,11734-7054c0,16.881-.622,33.952-1.848,50.739-1.217,16.671-3.062,33.518-5.483,50.073-2.4,16.427-5.44,33.029-9.03,49.346-3.565,16.2-7.768,32.538-12.488,48.555-4.689,15.915-10.024,31.965-15.855,47.7-5.8,15.645-12.236,31.387-19.136,46.79-6.86,15.315-14.371,30.729-22.324,45.813-7.915,15.009-16.47,30.074-25.426,44.776-8.925,14.651-18.492,29.346-28.437,43.676-9.907,14.278-20.458,28.582-31.358,42.514-10.861,13.883-22.365,27.776-34.192,41.292-11.787,13.47-24.215,26.93-36.936,40.005-12.687,13.038-26.006,26.044-39.59,38.657-13.56,12.59-27.743,25.122-42.155,37.249s-29.422,24.156-44.631,35.776-31.034,23.145-47.019,34.243-32.572,22.081-49.316,32.648-34.072,20.99-51.524,30.99c-17.471,10.012-35.519,19.86-53.644,29.271-18.167,9.435-36.9,18.684-55.673,27.491-18.83,8.833-38.214,17.462-57.612,25.646-19.463,8.211-39.471,16.2-59.467,23.742-20.067,7.569-40.667,14.9-61.228,21.774-20.632,6.9-41.794,13.547-62.9,19.746-21.2,6.226-42.895,12.166-64.484,17.654-21.708,5.52-43.906,10.735-65.979,15.5-22.2,4.793-44.867,9.264-67.385,13.287-22.653,4.047-45.768,7.751-68.7,11.01-23.064,3.277-46.592,6.195-69.927,8.671-23.492,2.492-47.4,4.6-71.065,6.27-23.832,1.681-48.095,2.962-72.113,3.808C10362.9-6068.432,10338.313-6068,10314-6068Z" transform="translate(-9631 6187.25)" fill="#41bfe7" opacity="0.19"/>
    </g>
  </g>
</svg>
