<svg xmlns="http://www.w3.org/2000/svg" width="472.16" height="213.767" viewBox="0 0 472.16 213.767">
  <g id="testimonial-dots1" transform="translate(0 -281.2)">
    <circle id="Ellipse_77" data-name="Ellipse 77" cx="3.524" cy="3.524" r="3.524" transform="translate(472.161 281.2) rotate(90)" fill="#9cc"/>
    <circle id="Ellipse_78" data-name="Ellipse 78" cx="3.524" cy="3.524" r="3.524" transform="translate(472.16 332.88) rotate(90)" fill="#9cc"/>
    <circle id="Ellipse_79" data-name="Ellipse 79" cx="3.524" cy="3.524" r="3.524" transform="translate(472.161 384.561) rotate(90)" fill="#9cc"/>
    <circle id="Ellipse_80" data-name="Ellipse 80" cx="3.524" cy="3.524" r="3.524" transform="translate(472.16 436.24) rotate(90)" fill="#9cc"/>
    <circle id="Ellipse_81" data-name="Ellipse 81" cx="3.524" cy="3.524" r="3.524" transform="translate(472.16 487.92) rotate(90)" fill="#9cc"/>
    <circle id="Ellipse_82" data-name="Ellipse 82" cx="3.524" cy="3.524" r="3.524" transform="translate(420.481 281.2) rotate(90)" fill="#9cc"/>
    <circle id="Ellipse_83" data-name="Ellipse 83" cx="3.524" cy="3.524" r="3.524" transform="translate(420.481 332.88) rotate(90)" fill="#9cc"/>
    <circle id="Ellipse_84" data-name="Ellipse 84" cx="3.524" cy="3.524" r="3.524" transform="translate(420.481 384.561) rotate(90)" fill="#9cc"/>
    <circle id="Ellipse_85" data-name="Ellipse 85" cx="3.524" cy="3.524" r="3.524" transform="translate(420.481 436.24) rotate(90)" fill="#9cc"/>
    <circle id="Ellipse_86" data-name="Ellipse 86" cx="3.524" cy="3.524" r="3.524" transform="translate(420.481 487.92) rotate(90)" fill="#9cc"/>
    <circle id="Ellipse_87" data-name="Ellipse 87" cx="3.524" cy="3.524" r="3.524" transform="translate(368.801 281.2) rotate(90)" fill="#9cc"/>
    <circle id="Ellipse_88" data-name="Ellipse 88" cx="3.524" cy="3.524" r="3.524" transform="translate(368.801 332.88) rotate(90)" fill="#9cc"/>
    <circle id="Ellipse_89" data-name="Ellipse 89" cx="3.524" cy="3.524" r="3.524" transform="translate(368.801 384.561) rotate(90)" fill="#9cc"/>
    <circle id="Ellipse_90" data-name="Ellipse 90" cx="3.524" cy="3.524" r="3.524" transform="translate(368.801 436.24) rotate(90)" fill="#9cc"/>
    <circle id="Ellipse_91" data-name="Ellipse 91" cx="3.524" cy="3.524" r="3.524" transform="translate(368.801 487.92) rotate(90)" fill="#9cc"/>
    <circle id="Ellipse_92" data-name="Ellipse 92" cx="3.524" cy="3.524" r="3.524" transform="translate(317.123 281.2) rotate(90)" fill="#9cc"/>
    <circle id="Ellipse_93" data-name="Ellipse 93" cx="3.524" cy="3.524" r="3.524" transform="translate(317.122 332.88) rotate(90)" fill="#9cc"/>
    <circle id="Ellipse_94" data-name="Ellipse 94" cx="3.524" cy="3.524" r="3.524" transform="translate(317.123 384.561) rotate(90)" fill="#9cc"/>
    <circle id="Ellipse_95" data-name="Ellipse 95" cx="3.524" cy="3.524" r="3.524" transform="translate(317.122 436.24) rotate(90)" fill="#9cc"/>
    <circle id="Ellipse_96" data-name="Ellipse 96" cx="3.524" cy="3.524" r="3.524" transform="translate(317.122 487.92) rotate(90)" fill="#9cc"/>
    <circle id="Ellipse_97" data-name="Ellipse 97" cx="3.524" cy="3.524" r="3.524" transform="translate(265.443 281.2) rotate(90)" fill="#9cc"/>
    <circle id="Ellipse_98" data-name="Ellipse 98" cx="3.524" cy="3.524" r="3.524" transform="translate(265.443 332.88) rotate(90)" fill="#9cc"/>
    <circle id="Ellipse_99" data-name="Ellipse 99" cx="3.524" cy="3.524" r="3.524" transform="translate(265.444 384.561) rotate(90)" fill="#9cc"/>
    <circle id="Ellipse_100" data-name="Ellipse 100" cx="3.524" cy="3.524" r="3.524" transform="translate(265.443 436.24) rotate(90)" fill="#9cc"/>
    <circle id="Ellipse_101" data-name="Ellipse 101" cx="3.524" cy="3.524" r="3.524" transform="translate(265.443 487.92) rotate(90)" fill="#9cc"/>
    <circle id="Ellipse_102" data-name="Ellipse 102" cx="3.524" cy="3.524" r="3.524" transform="translate(213.764 281.2) rotate(90)" fill="#9cc"/>
    <circle id="Ellipse_103" data-name="Ellipse 103" cx="3.524" cy="3.524" r="3.524" transform="translate(213.764 332.88) rotate(90)" fill="#9cc"/>
    <circle id="Ellipse_104" data-name="Ellipse 104" cx="3.524" cy="3.524" r="3.524" transform="translate(213.764 384.561) rotate(90)" fill="#9cc"/>
    <circle id="Ellipse_105" data-name="Ellipse 105" cx="3.524" cy="3.524" r="3.524" transform="translate(213.764 436.24) rotate(90)" fill="#9cc"/>
    <circle id="Ellipse_106" data-name="Ellipse 106" cx="3.524" cy="3.524" r="3.524" transform="translate(213.764 487.92) rotate(90)" fill="#9cc"/>
    <circle id="Ellipse_107" data-name="Ellipse 107" cx="3.524" cy="3.524" r="3.524" transform="translate(162.085 281.2) rotate(90)" fill="#9cc"/>
    <circle id="Ellipse_108" data-name="Ellipse 108" cx="3.524" cy="3.524" r="3.524" transform="translate(162.085 332.88) rotate(90)" fill="#9cc"/>
    <circle id="Ellipse_109" data-name="Ellipse 109" cx="3.524" cy="3.524" r="3.524" transform="translate(162.085 384.561) rotate(90)" fill="#9cc"/>
    <circle id="Ellipse_110" data-name="Ellipse 110" cx="3.524" cy="3.524" r="3.524" transform="translate(162.085 436.24) rotate(90)" fill="#9cc"/>
    <circle id="Ellipse_111" data-name="Ellipse 111" cx="3.524" cy="3.524" r="3.524" transform="translate(162.085 487.92) rotate(90)" fill="#9cc"/>
    <circle id="Ellipse_112" data-name="Ellipse 112" cx="3.524" cy="3.524" r="3.524" transform="translate(110.405 281.2) rotate(90)" fill="#9cc"/>
    <circle id="Ellipse_113" data-name="Ellipse 113" cx="3.524" cy="3.524" r="3.524" transform="translate(110.405 332.88) rotate(90)" fill="#9cc"/>
    <circle id="Ellipse_114" data-name="Ellipse 114" cx="3.524" cy="3.524" r="3.524" transform="translate(110.406 384.561) rotate(90)" fill="#9cc"/>
    <circle id="Ellipse_115" data-name="Ellipse 115" cx="3.524" cy="3.524" r="3.524" transform="translate(110.405 436.24) rotate(90)" fill="#9cc"/>
    <circle id="Ellipse_116" data-name="Ellipse 116" cx="3.524" cy="3.524" r="3.524" transform="translate(110.405 487.92) rotate(90)" fill="#9cc"/>
    <circle id="Ellipse_117" data-name="Ellipse 117" cx="3.524" cy="3.524" r="3.524" transform="translate(58.726 281.2) rotate(90)" fill="#9cc"/>
    <circle id="Ellipse_118" data-name="Ellipse 118" cx="3.524" cy="3.524" r="3.524" transform="translate(58.726 332.88) rotate(90)" fill="#9cc"/>
    <circle id="Ellipse_119" data-name="Ellipse 119" cx="3.524" cy="3.524" r="3.524" transform="translate(58.726 384.561) rotate(90)" fill="#9cc"/>
    <circle id="Ellipse_120" data-name="Ellipse 120" cx="3.524" cy="3.524" r="3.524" transform="translate(58.726 436.24) rotate(90)" fill="#9cc"/>
    <circle id="Ellipse_121" data-name="Ellipse 121" cx="3.524" cy="3.524" r="3.524" transform="translate(58.726 487.92) rotate(90)" fill="#9cc"/>
    <circle id="Ellipse_122" data-name="Ellipse 122" cx="3.524" cy="3.524" r="3.524" transform="translate(7.047 281.2) rotate(90)" fill="#9cc"/>
    <circle id="Ellipse_123" data-name="Ellipse 123" cx="3.524" cy="3.524" r="3.524" transform="translate(7.047 332.88) rotate(90)" fill="#9cc"/>
    <circle id="Ellipse_124" data-name="Ellipse 124" cx="3.524" cy="3.524" r="3.524" transform="translate(7.047 384.561) rotate(90)" fill="#9cc"/>
    <circle id="Ellipse_125" data-name="Ellipse 125" cx="3.524" cy="3.524" r="3.524" transform="translate(7.047 436.24) rotate(90)" fill="#9cc"/>
    <circle id="Ellipse_126" data-name="Ellipse 126" cx="3.524" cy="3.524" r="3.524" transform="translate(7.047 487.92) rotate(90)" fill="#9cc"/>
  </g>
</svg>
