<svg xmlns="http://www.w3.org/2000/svg" xmlns:xlink="http://www.w3.org/1999/xlink" width="1538.772" height="657.398" viewBox="0 0 1538.772 657.398"><defs><linearGradient id="a" y1="0.391" x2="1" y2="0.386" gradientUnits="objectBoundingBox"><stop offset="0" stop-color="#0f3764"/><stop offset="1" stop-color="#969"/></linearGradient></defs><g transform="matrix(0.982, -0.191, 0.191, 0.982, 0, 285.038)"><path d="M5.093,88.912h0M455.942,217.144a785.738,785.738,0,0,0,88-19.779c28.943-8.156,57.562-17.416,85.868-27.5C686.393,149.6,741.99,126.872,797.8,104.919,853.5,82.7,909.524,61.3,966.79,43.815c28.595-8.86,57.565-16.4,86.757-22.926a840.836,840.836,0,0,1,88.57-14.032l22.368-1.618c3.73-.215,7.452-.647,11.189-.687l11.211-.249,11.211-.249,5.607-.123c1.867-.02,3.734.094,5.6.133l22.422.677a532.32,532.32,0,0,1,88.864,11.725,547.686,547.686,0,0,1,85.722,26.367c13.938,5.461,27.587,11.636,41.053,18.174,6.708,3.324,13.417,6.654,19.984,10.25,6.429,3.389,12.809,6.923,19.182,10.458l4.342,176.4-32.084-40.431-8.655-10.912c-1.467-1.83-2.828-3.616-4.382-5.478-1.544-1.813-3.144-3.522-4.772-5.219a227.922,227.922,0,0,0-20.841-18.787c-7.279-5.869-14.928-11.241-22.672-16.462-7.845-5.063-15.81-9.949-24.011-14.412a406.179,406.179,0,0,0-50.812-23.44c-34.908-13.291-71.532-21.827-108.567-26.4a527.317,527.317,0,0,0-55.816-3.989c-18.651-.383-37.326-.052-55.932,1.292-37.328,2.129-74.3,9.559-110.014,20.449-35.7,11.06-70.194,25.576-103.78,41.673-67.133,32.4-131,70.594-196.72,104.909-65.533,34.5-133.269,65.414-204.621,85.083a718.948,718.948,0,0,1-108.611,21.461l-13.772,1.472c-4.594.472-9.176,1.07-13.795,1.257l-27.656,1.689c-18.458.7-36.938.632-55.362-.385-36.8-2.038-73.545-8.067-108.246-20.39C125.1,338.977,92.542,319.927,66.8,293.57a213.609,213.609,0,0,1-33.226-43.886,240.223,240.223,0,0,1-21.239-50.935,261.541,261.541,0,0,1-9.571-54.5,248.389,248.389,0,0,1-.541-27.723c.232-9.062,1.665-18.038,2.806-27.1l150.9-47.386,6.8,25.082c4.364,14.43,10.85,28.078,18.28,41.135a224.633,224.633,0,0,0,26.27,36.568,218.361,218.361,0,0,0,71.6,53.909c27.278,12.792,57.009,20,87.009,22.487q13.764,1.1,27.572,1.089a392.091,392.091,0,0,0,62.478-5.167M1203.731,0l-5.641.069L1186.8.211l-11.29.143c-3.764,0-7.511.4-11.268.583l-22.538,1.415a845.123,845.123,0,0,0-89.264,13.288c-7.375,1.489-14.684,3.283-22.027,4.908l-11,2.5-10.92,2.838c-7.269,1.924-14.58,3.712-21.82,5.753l-21.657,6.306c-57.592,17.4-113.855,38.7-169.671,60.776-55.754,22.252-111.148,45.282-167.456,65.795-56.266,20.424-113.527,38.843-172.516,49.12a373.643,373.643,0,0,1-89.284,5.11c-29.765-2.156-59.4-8.818-86.567-21.38a217.167,217.167,0,0,1-71.389-53.284,223.562,223.562,0,0,1-26.308-36.3c-7.452-12.957-13.985-26.569-18.372-40.858l-6.8-25.552-.116-.435-.432.133L4.034,88.017l-.5.158-.064.521C2.307,97.877.635,107.085.3,116.439q-.308,5.891-.3,11.782v.022c0,5.387.183,10.774.5,16.151a264.255,264.255,0,0,0,9,55.147,243.375,243.375,0,0,0,20.921,51.914,218.186,218.186,0,0,0,33.255,45.138c25.9,27.244,58.928,47.159,94.093,59.978,35.264,12.893,72.557,19.256,109.819,21.627a623.751,623.751,0,0,0,111.849-3.357A726.5,726.5,0,0,0,489.237,353.3c72.1-19.779,140.414-50.874,206.239-85.421,65.851-34.673,129.542-73.039,196.159-105.462,33.32-16.107,67.447-30.593,102.684-41.641,35.276-10.828,71.552-18.542,108.434-20.874,18.431-1.467,36.931-1.929,55.409-1.687a522.421,522.421,0,0,1,55.3,3.552c36.694,4.253,73,12.436,107.631,25.337a402.112,402.112,0,0,1,50.447,22.827c8.151,4.35,16.062,9.121,23.857,14.066,7.689,5.1,15.294,10.352,22.521,16.087a225.593,225.593,0,0,1,20.656,18.33c1.6,1.64,3.186,3.31,4.666,5.024,1.432,1.689,2.907,3.581,4.359,5.365l8.739,10.843,34.943,43.395,2.561,3.181-.114-4.075-4.974-181.127-.017-.64-.561-.309c-13.11-7.259-26.256-14.592-39.757-21.2S1421.237,46,1407.26,40.463A555.22,555.22,0,0,0,1231.93,1.087l-22.558-.9c-1.865-.057-3.73-.185-5.594-.185h-.047" transform="translate(0)" fill="url(#a)"/></g></svg>